<?xml version="1.0" encoding="UTF-8" standalone="no"?>
<!DOCTYPE svg PUBLIC "-//W3C//DTD SVG 1.1//EN" "http://www.w3.org/Graphics/SVG/1.1/DTD/svg11.dtd">
<svg width="100%" height="100%" viewBox="0 0 1182 1182" version="1.1" xmlns="http://www.w3.org/2000/svg" xmlns:xlink="http://www.w3.org/1999/xlink" xml:space="preserve" xmlns:serif="http://www.serif.com/" style="fill-rule:evenodd;clip-rule:evenodd;stroke-linejoin:round;stroke-miterlimit:2;">
    <g transform="matrix(8.588,0,0,8.18878,985.921,988.718)">
        <path d="M0,-0.222L-0.282,0.503L-0.403,0.605L0.39,0.555L0.702,-0.118L0.859,-0.827L0.757,-0.495L0,-0.222Z" style="fill:rgb(36,24,19);fill-rule:nonzero;"/>
    </g>
    <g transform="matrix(8.588,0,0,8.18878,980.427,995.63)">
        <path d="M0,-0.224L-0.064,0.015L0.237,-0.239L0,-0.224Z" style="fill:rgb(36,24,19);fill-rule:nonzero;"/>
    </g>
    <g transform="matrix(8.588,0,0,8.18878,993.489,981.88)">
        <path d="M0,-0.092L-0.022,0.008L0.011,-0.1L0,-0.092Z" style="fill:rgb(36,24,19);fill-rule:nonzero;"/>
    </g>
    <g transform="matrix(8.588,0,0,8.18878,1043.7,250.939)">
        <path d="M0,82.261L-0.175,82.325L0.002,81.666L0.256,81.26L0.21,81.545L0,82.261ZM-1.321,58.507L-1.726,59.123L-2.162,59.718L-2.745,60.222L-3.081,60.858L-3.606,61.37L-3.93,62.013L-4.158,62.742L-4.722,63.212L-5.262,63.691L-5.435,64.524L-6.267,64.711L-6.491,65.532L-7.425,65.573L-7.969,66.038L-8.531,66.485L-8.837,67.246L-9.612,67.432L-10.214,67.834L-10.778,68.283L-10.983,69.209L-11.74,69.415L-12.133,70.106L-13.052,70.086L-13.391,70.852L-13.988,71.264L-14.7,71.513L-15.071,72.264L-15.894,72.337L-16.502,72.734L-17.22,72.943L-17.793,73.397L-18.292,74.022L-18.953,74.341L-19.703,74.438L-20.317,74.889L-21.096,74.841L-21.727,75.272L-22.514,75.11L-23.241,75.158L-23.894,75.561L-24.571,75.864L-25.388,75.428L-26.099,75.544L-26.714,76.194L-27.455,76.154L-28.209,76.065L-28.92,76.2L-29.583,76.604L-30.279,76.835L-30.941,77.225L-31.705,76.962L-32.428,76.838L-33.123,77.057L-33.816,76.727L-34.506,76.711L-35.236,76.829L-35.966,76.801L-36.504,76.187L-37.218,76.095L-37.941,76.008L-38.489,75.47L-39.252,75.499L-39.996,75.521L-40.476,74.648L-41.196,74.571L-42.017,74.983L-42.627,74.407L-43.327,74.078L-44.071,74.073L-44.813,74.017L-45.534,74.335L-46.226,74.73L-46.964,74.574L-47.71,74.242L-48.398,74.229L-49.133,74.614L-49.688,74.098L-50.42,73.948L-50.935,73.413L-51.365,72.799L-51.76,72.146L-51.562,71.345L-51.3,70.684L-51.162,70.079L-50.88,69.475L-50.308,69.108L-49.785,68.646L-49.149,68.355L-48.557,67.968L-47.829,67.848L-47.499,66.999L-46.846,66.763L-45.949,66.726L-45.52,66.095L-45.136,65.44L-44.857,64.719L-45.392,63.963L-44.843,63.227L-45.257,62.52L-45.182,61.787L-45.412,61.087L-45.647,60.403L-45.965,59.754L-46.158,59.087L-46.327,58.407L-46.3,58.259L-45.844,58.691L-45.694,59.4L-45.272,59.992L-44.848,60.569L-44.354,61.082L-43.963,61.649L-43.589,62.236L-43.464,63.1L-42.719,63.35L-42.08,63.678L-41.813,64.522L-41.219,64.933L-40.302,64.806L-39.855,65.454L-39.157,65.659L-38.481,65.907L-37.778,66.091L-37.14,66.417L-36.648,67.065L-35.893,67.13L-35.435,67.885L-34.764,68.16L-34.047,68.319L-33.189,68.046L-32.589,68.509L-31.934,68.847L-31.136,68.549L-30.542,69.306L-29.81,69.331L-29.077,69.22L-28.361,69.028L-27.663,68.861L-26.935,69.042L-26.221,68.996L-25.473,69.107L-24.83,68.648L-24.068,68.78L-23.412,68.437L-22.736,68.194L-22.07,67.909L-21.26,68.198L-20.715,67.434L-19.901,67.724L-19.174,67.667L-18.576,67.1L-17.822,67.151L-17.229,66.585L-16.571,66.295L-15.847,66.224L-15.196,65.926L-14.572,65.582L-13.734,65.738L-13.155,65.283L-12.677,64.696L-11.926,64.558L-11.397,64.076L-11.017,63.445L-10.089,63.373L-9.596,62.841L-9.114,62.306L-8.976,61.492L-8.415,61.029L-7.945,60.489L-7.301,60.081L-6.917,59.475L-6.675,58.754L-6.495,57.984L-5.719,57.681L-5.667,56.824L-5.132,56.338L-4.467,55.949L-3.913,55.472L-3.831,54.651L-3.474,54.033L-3.143,53.399L-2.539,52.949L-1.951,52.478L-1.588,51.861L-1.48,51.109L-1.127,50.492L-0.858,49.839L-0.204,49.344L-0.602,48.432L-0.225,47.822L0.439,47.294L0.382,46.532L0.826,45.928L1.186,45.294L0.683,44.41L1.344,43.864L1.744,43.239L1.546,42.444L1.656,41.734L1.99,41.086L2.221,40.404L2.223,39.658L2.592,39.009L2.957,38.352L2.947,37.611L3.002,36.89L2.881,36.153L3.174,35.46L2.834,34.74L3.279,34.018L3.416,33.278L3.292,32.56L2.585,31.947L2.804,31.186L2.428,30.531L2.785,29.735L2.081,29.137L2.439,28.343L2.087,27.678L1.676,27.015L1.862,26.253L1.892,25.509L1.622,24.815L1.73,24.061L1.336,23.389L1.105,22.693L1.128,21.954L1.035,21.234L0.972,20.509L0.77,19.807L1.07,19.011L0.38,18.408L0.747,17.589L0.613,16.868L0.097,16.249L-0.226,15.594L-0.191,14.823L-0.316,14.094L-0.853,13.527L-1.279,12.925L-1.416,12.196L-2.042,11.693L-2.007,10.878L-2.396,10.265L-2.418,9.468L-2.706,8.801L-3.447,8.366L-3.696,7.68L-3.876,6.953L-4.49,6.453L-4.775,5.787L-4.909,5.045L-5.669,4.63L-5.968,3.97L-6.305,3.331L-6.224,2.476L-7.014,2.077L-7.329,1.431L-7.558,0.741L-8.017,0.181L-8.177,-0.556L-8.761,-1.031L-9.116,-1.644L-9.27,-2.422L-9.646,-3.047L-10.152,-3.565L-10.641,-4.094L-11.198,-4.553L-11.813,-4.95L-12.515,-5.248L-12.869,-5.919L-13.469,-6.324L-13.661,-7.189L-14.208,-7.663L-14.866,-8.011L-15.435,-8.46L-16.119,-8.774L-16.514,-9.415L-17.276,-9.638L-17.428,-10.554L-18.032,-10.957L-18.923,-11.031L-19.486,-11.479L-19.784,-12.243L-20.608,-12.382L-20.766,-13.322L-21.287,-13.827L-22.23,-13.777L-22.543,-14.567L-23.258,-14.799L-23.816,-15.254L-24.576,-15.377L-25.143,-15.817L-25.835,-16.033L-26.476,-16.347L-26.921,-17.053L-27.709,-17.067L-28.123,-17.867L-29.073,-17.521L-29.527,-18.253L-30.275,-18.341L-30.877,-18.752L-31.448,-19.247L-32.28,-19.144L-32.903,-19.546L-33.646,-19.656L-34.125,-20.406L-34.813,-20.657L-35.468,-21.002L-36.166,-21.234L-37.016,-21.031L-37.344,-21.488L-37.203,-21.509L-36.465,-21.464L-35.735,-21.395L-35.053,-21.108L-34.259,-21.336L-33.621,-20.831L-32.887,-20.777L-32.155,-20.696L-31.483,-20.351L-30.786,-20.134L-30.121,-19.806L-29.266,-20.189L-28.736,-19.399L-27.985,-19.374L-27.199,-19.402L-26.51,-19.151L-26.092,-18.315L-25.426,-18.048L-24.513,-18.219L-23.918,-17.779L-23.427,-17.181L-22.718,-16.942L-22.299,-16.262L-21.481,-16.177L-20.837,-15.823L-20.464,-15.094L-19.652,-14.972L-19.162,-14.401L-18.83,-13.631L-18.349,-13.066L-17.572,-12.866L-17.135,-12.239L-16.405,-11.981L-16.037,-11.275L-15.191,-11.159L-14.535,-10.807L-13.919,-10.407L-13.827,-9.398L-12.988,-9.26L-12.644,-8.555L-12.041,-8.143L-11.252,-7.918L-10.813,-7.318L-10.362,-6.739L-9.804,-6.262L-9.188,-5.833L-8.792,-5.211L-8.595,-4.439L-8.106,-3.907L-7.387,-3.531L-7.277,-2.724L-6.624,-2.29L-6.296,-1.641L-5.758,-1.126L-5.384,-0.506L-5.253,0.261L-5.158,1.044L-4.49,1.494L-4.439,2.303L-3.585,2.647L-3.802,3.61L-3.136,4.058L-3.052,4.847L-2.508,5.374L-2.164,6.011L-1.711,6.594L-1.039,7.051L-0.624,7.663L-0.625,8.511L-0.039,9.024L0.323,9.662L0.363,10.472L0.695,11.119L1.426,11.564L1.687,12.254L1.752,13.035L1.88,13.774L2.756,14.201L2.603,15.051L2.831,15.74L2.968,16.455L3.393,17.091L3.214,17.876L3.546,18.543L3.693,19.25L3.95,19.947L3.676,20.706L4.251,21.379L4.312,22.107L4.359,22.837L3.965,23.595L4.176,24.309L3.967,25.053L4.409,25.753L4.262,26.493L4.301,27.223L4.119,27.968L4.526,28.674L4.541,29.407L4.501,30.134L4.731,30.842L5.016,31.542L4.92,32.274L4.996,32.99L5.085,33.702L4.63,34.459L4.876,35.162L5.416,35.85L5.225,36.583L5.308,37.304L5.305,38.028L5.377,38.75L5.141,39.463L5.286,40.198L5.336,40.935L4.704,41.566L4.901,42.329L4.839,43.057L4.471,43.702L4.329,44.411L3.9,45.027L3.856,45.772L3.34,46.342L3.309,47.098L3.234,47.843L2.911,48.488L2.651,49.16L2.497,49.877L1.679,50.312L1.489,51.016L0.925,51.567L1.282,52.516L0.587,53.007L0.234,53.646L0.438,54.522L0.19,55.202L-0.536,55.677L-0.926,56.296L-0.841,57.126L-1.611,57.574L-1.321,58.507ZM-39.089,-21.682L-39.741,-22.068L-39.958,-22.062L-39.288,-22.223L-38.682,-21.627L-38.595,-21.598L-39.089,-21.682ZM-40.491,-22.049L-40.925,-22.294L-40.773,-22.307L-40.167,-22.057L-40.491,-22.049ZM-42.564,-22.884L-43.368,-22.343L-43.604,-22.603L-42.911,-22.973L-42.165,-22.944L-42,-22.765L-42.564,-22.884ZM-44.787,-22.678L-45.055,-22.766L-44.397,-22.919L-44.342,-22.894L-44.787,-22.678ZM14.971,38.469L14.719,37.759L14.798,37.032L14.798,36.305L14.443,35.628L13.983,34.984L13.894,34.278L13.928,33.543L14.266,32.734L13.837,32.095L13.523,31.432L13.584,30.677L12.995,30.084L13.146,29.301L13.059,28.576L12.552,27.955L12.171,27.3L12.375,26.494L11.815,25.877L12.157,25.045L12.09,24.313L11.838,23.626L11.149,23.037L11.046,22.316L11.572,21.456L10.901,20.861L11.054,20.081L10.957,19.357L10.916,18.616L10.106,18.066L10.052,17.335L9.841,16.645L9.781,15.908L9.83,15.126L9.103,14.619L8.8,13.969L8.913,13.141L8.289,12.636L8.459,11.749L7.738,11.306L7.662,10.522L6.841,10.157L6.818,9.33L6.173,8.876L5.901,8.195L5.434,7.64L5.253,6.892L5.015,6.176L4.285,5.796L4.003,5.103L3.412,4.622L3.202,3.891L2.607,3.42L2.629,2.519L1.896,2.147L1.488,1.55L1.056,0.97L0.43,0.53L0.187,-0.18L-0.419,-0.631L-0.784,-1.251L-0.762,-2.155L-1.421,-2.562L-1.954,-3.06L-2.183,-3.79L-2.727,-4.282L-3.138,-4.879L-3.779,-5.277L-4.125,-5.926L-4.604,-6.461L-5.309,-6.773L-5.49,-7.609L-6.373,-7.714L-6.563,-8.571L-7.344,-8.76L-7.882,-9.227L-8.175,-10.002L-8.936,-10.184L-9.539,-10.567L-9.851,-11.354L-10.647,-11.473L-11.403,-11.644L-11.652,-12.545L-12.208,-13.005L-12.871,-13.306L-13.734,-13.302L-14.327,-13.706L-14.625,-14.557L-15.421,-14.652L-15.913,-15.218L-16.801,-15.187L-17.197,-15.895L-17.945,-16.056L-18.602,-16.351L-19.059,-16.978L-19.592,-17.486L-20.384,-17.529L-21.071,-17.743L-21.482,-18.499L-22.143,-18.773L-22.737,-19.197L-23.631,-18.906L-24.242,-19.278L-24.919,-19.484L-25.453,-20.135L-26.199,-20.128L-26.798,-20.644L-27.532,-20.655L-28.293,-20.505L-28.864,-21.215L-29.558,-21.352L-30.257,-21.455L-30.946,-21.597L-31.762,-21.166L-32.381,-21.641L-33.098,-21.689L-33.778,-21.902L-34.454,-22.126L-35.213,-22.063L-35.738,-22.791L-36.464,-22.842L-37.138,-23.05L-37.878,-23.086L-38.566,-23.285L-39.235,-23.523L-40,-23.541L-40.657,-23.843L-41.081,-24.732L-41.728,-25.066L-42.513,-25.056L-43.079,-25.598L-43.797,-25.763L-44.46,-26.071L-45.13,-26.36L-45.902,-26.386L-46.75,-26.212L-47.321,-26.761L-47.942,-27.188L-48.661,-27.348L-49.417,-27.399L-49.984,-27.999L-50.659,-28.291L-51.428,-28.283L-52.035,-28.811L-52.907,-28.388L-53.572,-28.702L-54.171,-29.362L-55.012,-28.804L-55.707,-28.927L-56.389,-29.297L-57.124,-29.647L-57.787,-28.971L-58.438,-28.827L-59.182,-28.746L-59.453,-28.071L-59.881,-27.507L-60.169,-26.797L-59.877,-26.085L-60.04,-25.319L-59.914,-24.585L-59.08,-24.097L-59.297,-23.23L-58.932,-22.625L-59.625,-22.569L-60.259,-22.096L-60.994,-22.176L-61.709,-22.186L-62.422,-22.209L-63.136,-22.24L-63.835,-22.085L-64.556,-21.76L-65.293,-21.722L-66.032,-21.974L-66.757,-22.319L-67.503,-21.744L-68.206,-22.4L-68.967,-21.892L-69.68,-22.194L-70.408,-22.261L-71.141,-22.337L-71.847,-21.967L-72.544,-21.802L-73.293,-21.912L-74.012,-21.78L-74.729,-21.643L-75.423,-21.418L-76.148,-21.273L-76.895,-21.162L-77.49,-20.715L-78.104,-20.319L-78.792,-20.131L-79.417,-19.769L-80.177,-19.793L-80.741,-19.242L-81.373,-18.887L-82.111,-18.848L-82.921,-19.017L-83.585,-18.761L-84.104,-18.101L-84.954,-18.351L-85.45,-17.668L-86.083,-17.354L-86.675,-16.966L-87.326,-16.711L-88.034,-16.546L-88.652,-16.201L-89.224,-15.783L-90.015,-15.697L-90.313,-14.884L-91.135,-14.816L-91.367,-13.951L-92.023,-13.651L-92.583,-13.215L-93.08,-12.713L-94.032,-12.747L-94.306,-11.952L-94.981,-11.634L-95.65,-11.307L-95.932,-10.515L-96.758,-10.385L-96.995,-9.542L-97.582,-9.125L-98.22,-8.771L-98.777,-8.323L-99.588,-8.181L-99.904,-7.443L-100.315,-6.822L-101.041,-6.57L-101.455,-5.947L-102.088,-5.579L-102.438,-4.903L-103.133,-4.602L-103.592,-4.052L-103.896,-3.357L-104.678,-3.117L-104.984,-2.44L-105.402,-1.865L-105.976,-1.418L-106.388,-0.843L-106.667,-0.171L-107.514,0.098L-107.883,0.714L-108.233,1.341L-108.303,2.148L-109.016,2.541L-109.421,3.133L-109.618,3.85L-110.096,4.391L-110.528,4.968L-110.685,5.708L-110.761,6.488L-111.159,7.09L-111.668,7.628L-112.442,8.014L-112.573,8.769L-112.807,9.472L-113.36,9.995L-113.355,10.824L-113.985,11.305L-114.407,11.9L-114.461,12.686L-114.614,13.414L-115.267,13.889L-115.242,14.698L-115.998,15.136L-116.383,15.755L-116.592,16.458L-116.389,17.32L-116.695,17.966L-117.56,18.422L-117.313,19.261L-117.81,19.862L-118.061,20.541L-118.354,21.211L-117.906,22.044L-118.171,22.712L-118.286,23.416L-118.554,24.095L-118.939,24.756L-118.568,25.533L-118.629,26.245L-119.13,26.898L-118.892,27.655L-119.497,28.299L-119.182,29.067L-119.565,29.74L-119.161,30.518L-119.63,31.178L-119.432,31.93L-119.653,32.627L-119.662,33.35L-120.005,34.034L-120.293,34.726L-120.027,35.499L-120.271,36.202L-120.159,36.949L-120.472,37.651L-120.336,38.398L-120.903,39.082L-120.589,39.837L-120.636,40.563L-120.643,41.29L-120.412,42.021L-120.61,42.745L-120.369,43.463L-120.394,44.19L-120.855,44.956L-120.509,45.656L-120.298,46.363L-120.436,47.118L-120.204,47.816L-120.129,48.536L-119.779,49.203L-119.798,49.943L-119.671,50.654L-119.298,51.258L-119.273,51.094L-119.529,50.377L-119.776,49.649L-119.27,48.935L-119.312,48.21L-119.245,47.492L-119.376,46.749L-118.877,46.098L-118.984,45.351L-119.194,44.573L-118.829,43.908L-118.456,43.25L-118.658,42.458L-118.216,41.818L-117.937,41.14L-118.1,40.356L-117.911,39.657L-117.596,38.987L-117.686,38.219L-117.056,37.62L-117.383,36.796L-116.771,36.189L-116.744,35.463L-116.431,34.803L-116.521,34.048L-116.409,33.34L-116.325,32.621L-115.808,32.01L-115.997,31.226L-115.831,30.53L-115.08,29.991L-115.067,29.26L-114.764,28.607L-114.914,27.818L-114.311,27.262L-114.033,26.611L-114.052,25.848L-113.904,25.141L-113.711,24.448L-113.306,23.849L-113.329,23.044L-112.698,22.563L-112.44,21.891L-112.147,21.242L-111.625,20.731L-111.208,20.159L-110.699,19.649L-110.773,18.751L-109.898,18.481L-109.662,17.782L-109.488,17.036L-109.103,16.435L-108.235,16.171L-107.87,15.557L-107.914,14.661L-107.437,14.125L-106.827,13.678L-106.56,12.999L-105.89,12.59L-105.786,11.786L-105.438,11.141L-104.738,10.742L-104.63,9.938L-104.095,9.428L-103.37,9.053L-102.844,8.541L-102.683,7.776L-102.097,7.308L-101.872,6.582L-101.204,6.18L-101.106,5.352L-100.77,4.696L-100.375,4.079L-99.397,3.974L-99.225,3.163L-98.521,2.851L-98.071,2.294L-97.764,1.551L-97.13,1.183L-96.511,0.81L-95.973,0.327L-95.47,-0.216L-94.813,-0.534L-94.038,-0.656L-93.461,-1.088L-93.022,-1.751L-92.226,-1.818L-91.75,-2.427L-91.091,-2.728L-90.552,-3.238L-89.922,-3.593L-89.161,-3.719L-88.386,-3.814L-87.924,-4.455L-87.13,-4.51L-86.768,-5.327L-85.835,-5.121L-85.373,-5.758L-84.601,-5.829L-84.062,-6.337L-83.417,-6.644L-82.815,-7.047L-82.305,-7.654L-81.663,-7.988L-80.849,-7.884L-80.26,-8.356L-79.575,-8.578L-78.801,-8.443L-78.113,-8.588L-77.491,-9.132L-76.771,-9.17L-76.034,-8.994L-75.311,-8.885L-74.646,-9.546L-73.907,-9.164L-73.197,-9.187L-72.483,-9.139L-71.781,-9.395L-71.058,-9.085L-70.35,-9.293L-69.637,-9.342L-68.925,-9.513L-68.199,-9.194L-67.488,-9.694L-66.765,-9.718L-66.043,-9.739L-65.305,-9.347L-64.592,-9.534L-63.862,-9.326L-63.163,-9.736L-62.435,-9.588L-61.715,-9.612L-60.988,-9.423L-60.282,-9.783L-59.561,-9.761L-58.843,-9.675L-58.124,-9.826L-57.393,-10.009L-56.683,-9.803L-55.965,-9.734L-55.247,-9.645L-54.648,-9.025L-53.921,-9.031L-53.101,-9.277L-52.483,-8.842L-51.788,-8.641L-51.124,-8.361L-50.434,-8.146L-49.858,-7.673L-49.133,-7.542L-48.429,-7.343L-48.002,-6.574L-47.221,-6.542L-46.529,-6.299L-45.967,-5.806L-45.293,-5.525L-44.752,-5.003L-44.025,-4.826L-43.529,-4.238L-42.788,-4.075L-42.063,-3.869L-41.474,-3.44L-40.854,-3.055L-40.179,-2.745L-39.925,-1.872L-39.303,-1.505L-38.95,-0.824L-37.969,-0.817L-37.763,-0.005L-37.336,0.572L-36.488,0.798L-36.005,1.343L-35.929,2.193L-35.585,2.833L-34.848,3.188L-34.83,4.057L-33.907,4.284L-33.567,4.921L-33.241,5.573L-33.03,6.309L-32.588,6.874L-32.289,7.557L-31.782,8.091L-31.175,8.526L-30.896,9.189L-30.608,9.832L-29.904,10.264L-30.009,11.088L-29.377,11.621L-29.747,12.443L-29.638,13.115L-29.585,13.801L-29.168,14.471L-29.454,15.186L-29.467,15.893L-29.401,16.598L-28.747,17.232L-28.919,17.961L-28.5,18.592L-28.87,19.392L-28.312,19.983L-28.122,20.65L-28.055,21.37L-27.412,21.841L-27.411,22.629L-27.042,23.23L-26.827,23.919L-26.385,24.467L-25.823,25.018L-25.728,25.803L-26.103,26.484L-26.307,27.219L-26.974,27.596L-27.32,28.261L-28.109,28.491L-28.773,28.785L-29.374,29.256L-30.154,29.422L-30.696,28.688L-31.336,28.365L-32.221,28.501L-32.866,28.117L-33.601,27.817L-34.384,27.888L-35.048,28.333L-35.692,28.703L-36.21,29.24L-36.997,29.242L-37.708,29.403L-38.249,29.892L-39.012,29.98L-39.595,30.391L-40.054,30.983L-40.513,31.53L-41.299,31.719L-41.662,32.357L-41.941,33.022L-42.559,33.461L-42.661,34.206L-42.76,34.933L-43.661,35.277L-43.866,35.958L-43.655,36.826L-44.332,37.288L-44.819,37.84L-45.072,38.501L-45.415,39.12L-45.483,39.878L-45.521,40.66L-46.043,41.194L-46.709,41.642L-47.08,42.248L-47.042,43.078L-47.644,43.567L-47.706,44.334L-47.935,45.004L-48.093,45.689L-48.146,46.381L-48.615,46.998L-48.921,47.695L-48.863,48.418L-48.676,49.121L-48.653,49.841L-48.408,50.521L-48.28,51.221L-48.015,51.889L-48.01,52.633L-47.271,53.157L-47.209,53.883L-47.502,54.715L-47.224,55.378L-47.042,56.072L-46.897,56.779L-46.147,57.289L-46.214,57.494L-46.827,57.075L-47.362,56.583L-47.374,55.674L-47.837,55.113L-48.778,54.995L-48.999,54.227L-49.602,53.816L-50.158,53.351L-50.758,52.921L-51.224,52.368L-51.397,51.56L-52.066,51.177L-52.114,50.271L-52.569,49.702L-53.11,49.2L-54.012,48.966L-54.238,48.215L-54.553,47.537L-55.387,47.26L-55.31,46.268L-55.837,45.743L-56.459,45.315L-57.128,44.962L-57.768,44.623L-58.212,44.006L-58.821,43.608L-59.392,43.079L-60.2,43.15L-60.813,42.644L-61.573,42.656L-62.302,42.583L-63.041,42.572L-63.689,41.958L-64.497,42.491L-65.149,41.892L-65.858,41.674L-66.542,41.988L-66.039,41.582L-65.299,41.608L-64.577,41.507L-63.81,41.626L-63.109,41.412L-62.447,41.015L-61.797,40.535L-60.991,40.828L-60.385,40.206L-59.658,40.21L-58.901,40.386L-58.17,40.423L-57.547,39.873L-56.861,39.675L-56.187,39.449L-55.44,39.555L-54.684,39.627L-53.996,39.418L-53.422,38.914L-52.763,38.664L-52.157,38.306L-51.324,38.277L-51.191,37.275L-50.566,36.947L-49.723,36.806L-49.44,36.087L-48.773,35.729L-48.181,35.29L-48.323,34.261L-47.491,34.004L-46.873,33.549L-46.78,32.708L-46.43,32.058L-45.893,31.539L-45.458,30.948L-45.243,30.221L-44.704,29.688L-44.178,29.128L-44.027,28.385L-43.84,27.669L-43.855,26.912L-43.474,26.253L-43.756,25.493L-43.237,24.802L-43.038,24.059L-43.111,23.319L-43.797,22.648L-43.523,21.887L-43.877,21.201L-43.476,20.402L-44.188,19.777L-43.804,18.971L-44.165,18.289L-44.593,17.618L-44.41,16.841L-44.392,16.095L-44.686,15.407L-44.592,14.645L-45.021,13.982L-45.288,13.291L-45.302,12.548L-45.445,11.832L-45.57,11.109L-45.852,10.433L-45.651,9.594L-46.453,9.115L-46.248,8.223L-46.555,7.539L-47.233,7.082L-47.743,6.552L-47.954,5.798L-48.323,5.144L-49.037,4.8L-49.658,4.392L-50.05,3.758L-50.831,3.528L-51.097,2.745L-51.697,2.322L-52.018,1.577L-52.544,1.061L-53.412,0.95L-53.909,0.407L-54.363,-0.197L-55.136,-0.399L-55.683,-0.885L-56.143,-1.501L-57.025,-1.487L-57.614,-1.893L-58.243,-2.23L-58.692,-2.977L-59.559,-2.75L-60.22,-2.993L-60.876,-3.3L-61.601,-3.315L-62.275,-3.668L-63.017,-3.505L-63.729,-3.625L-64.431,-4.025L-65.155,-4.164L-65.886,-4.151L-66.615,-4.177L-67.35,-4.12L-68.088,-3.989L-68.81,-3.732L-69.519,-4.004L-70.231,-3.901L-70.95,-4.429L-71.671,-4.406L-72.383,-4.198L-73.097,-4.115L-73.788,-3.83L-74.526,-3.973L-75.173,-3.52L-75.993,-3.98L-76.676,-3.717L-77.217,-2.997L-77.877,-2.755L-78.677,-2.9L-79.185,-2.238L-80.084,-2.579L-80.774,-2.379L-81.191,-1.521L-82.026,-1.685L-82.6,-1.21L-83.289,-1.018L-83.838,-0.473L-84.54,-0.304L-85.154,0.089L-85.819,0.36L-86.646,0.188L-87.199,0.758L-88.067,0.475L-88.479,1.417L-89.324,1.211L-89.901,1.692L-90.611,1.842L-91.363,1.921L-91.815,2.629L-92.499,2.853L-93.005,3.381L-93.89,3.344L-94.454,3.799L-95.065,4.191L-95.583,4.689L-95.77,5.535L-96.657,5.636L-96.849,6.46L-97.298,7.019L-97.957,7.366L-98.331,8.005L-99.018,8.333L-99.674,8.709L-100.222,9.192L-100.265,10.173L-101.237,10.233L-101.406,11.082L-102.023,11.494L-102.238,12.291L-103.121,12.457L-103.53,13.068L-104.026,13.601L-104.467,14.178L-105.11,14.591L-105.152,15.473L-105.683,15.977L-106.02,16.616L-106.276,17.299L-106.841,17.792L-107.225,18.401L-107.571,19.033L-107.926,19.663L-108.341,20.261L-108.708,20.883L-109.312,21.389L-109.579,22.065L-109.521,22.899L-109.921,23.511L-109.914,24.321L-110.412,24.886L-110.83,25.491L-111.237,26.087L-111.64,26.683L-111.855,27.371L-111.901,28.143L-112.2,28.79L-112.751,29.317L-113.372,29.815L-113.107,30.719L-113.981,31.115L-113.724,31.991L-114.228,32.561L-114.497,33.224L-114.778,33.886L-114.623,34.658L-114.689,35.365L-115.061,36.012L-115.204,36.707L-115.36,37.402L-115.435,38.107L-115.611,38.801L-115.84,39.492L-115.688,40.223L-115.587,40.948L-115.708,41.654L-115.634,42.378L-115.976,43.086L-115.686,43.844L-115.602,44.58L-115.855,45.292L-116.329,45.997L-116.334,46.733L-115.89,47.477L-116.446,48.202L-115.967,48.93L-115.897,49.654L-115.741,50.366L-115.736,51.089L-115.841,51.835L-115.74,52.555L-115.553,53.257L-115.768,54.045L-115.101,54.638L-115.357,55.448L-114.623,56.014L-114.605,56.758L-114.429,57.462L-114.169,58.147L-114.624,59.009L-114.011,59.607L-114.027,60.361L-114.037,61.111L-113.437,61.723L-113.705,62.533L-113.045,63.116L-112.943,63.821L-112.926,64.543L-112.783,65.24L-113.045,66.025L-112.522,66.637L-112.156,67.283L-112.278,68.038L-112.256,68.075L-112.598,68.039L-112.865,67.253L-113.72,67.118L-114.046,66.407L-114.396,65.74L-114.922,65.247L-115.632,64.907L-116.174,64.402L-116.293,63.587L-116.788,63.049L-116.881,62.276L-117.57,61.823L-117.598,61.047L-118.156,60.482L-118.413,59.789L-118.378,59.655L-118.619,60.025L-118.622,60.748L-118.448,61.459L-117.929,62.142L-117.874,62.863L-118.324,63.629L-117.917,64.322L-118.039,65.063L-117.483,65.737L-117.764,66.495L-117.437,67.191L-117.264,67.902L-117.46,68.651L-117.529,69.388L-117.103,70.056L-116.871,70.746L-117.209,71.531L-117.047,72.236L-117.042,72.973L-116.323,73.558L-116.275,74.281L-116.063,74.964L-116.275,75.775L-115.85,76.396L-115.894,77.189L-115.451,77.794L-114.843,78.282L-114.865,79.195L-114.313,79.751L-113.614,80.153L-112.827,80.365L-112.131,79.771L-111.376,79.856L-110.794,79.421L-110.188,79.049L-109.608,78.619L-108.875,78.328L-108.62,77.561L-108.603,77.551L-108.381,77.891L-107.694,78.327L-107.705,79.147L-107.376,79.805L-106.826,80.338L-106.571,81.041L-106.258,81.712L-105.656,82.199L-104.971,82.617L-104.591,83.234L-104.298,83.921L-104.223,84.803L-103.542,85.189L-102.949,85.634L-102.636,86.33L-101.839,86.587L-101.599,87.351L-101.186,87.96L-100.459,88.293L-99.828,88.715L-99.648,89.526L-98.878,89.844L-98.823,90.729L-98.455,91.354L-97.943,91.864L-97.085,92.115L-96.699,92.724L-96.822,93.71L-95.98,93.982L-95.794,94.741L-95.39,95.343L-95.004,95.973L-94.045,96.037L-93.619,96.61L-93.069,97.053L-92.605,97.616L-92.202,98.275L-91.329,98.284L-90.716,98.657L-90.353,99.408L-89.554,99.525L-89.252,100.371L-88.413,100.427L-87.989,101.088L-87.096,101.074L-86.725,101.812L-85.955,101.976L-85.435,102.497L-84.786,102.835L-84.332,103.452L-83.836,104.017L-83.019,104.083L-82.481,104.592L-81.753,104.765L-81.227,105.31L-80.486,105.426L-80.03,106.196L-79.214,106.112L-78.541,106.368L-77.853,106.582L-77.093,106.563L-76.466,106.971L-75.711,106.954L-75.035,107.212L-74.478,107.922L-73.703,107.836L-72.968,107.899L-72.326,108.33L-71.59,108.401L-70.895,108.643L-70.128,108.615L-69.465,108.965L-68.763,109.167L-67.984,109.086L-67.404,109.722L-66.565,109.417L-65.995,110.093L-65.198,109.941L-64.499,110.147L-63.895,110.734L-63.109,110.609L-62.389,110.725L-61.772,111.315L-60.986,111.108L-60.223,110.948L-59.595,111.636L-58.877,111.789L-58.139,111.741L-57.385,111.319L-56.669,111.359L-55.957,111.908L-55.229,111.557L-54.499,111.744L-53.788,111.219L-53.046,111.557L-52.336,111.259L-51.62,111.118L-50.874,111.361L-50.135,111.469L-49.438,111.066L-48.726,110.866L-47.952,111.268L-47.228,111.154L-46.497,111.215L-45.844,110.54L-45.115,110.584L-44.402,110.473L-43.634,110.837L-42.937,110.544L-42.182,110.797L-41.482,110.555L-40.803,110.165L-40.021,110.637L-39.306,110.539L-38.596,110.405L-37.88,110.301L-37.258,109.615L-36.492,109.814L-35.804,109.567L-35.091,109.462L-34.381,109.346L-33.749,108.921L-32.914,109.25L-32.269,108.886L-31.588,108.654L-30.981,108.227L-30.331,107.941L-29.675,107.67L-29.117,107.166L-28.451,106.919L-27.531,107.221L-26.849,106.98L-26.326,106.403L-25.551,106.345L-24.952,105.927L-24.29,105.639L-23.637,105.335L-23.113,104.787L-22.683,104.05L-21.901,103.99L-21.182,103.818L-20.582,103.4L-20.032,102.884L-19.222,102.878L-18.56,102.584L-18.052,102.025L-17.266,101.932L-16.987,101.021L-16.315,100.744L-15.438,100.748L-15.265,99.77L-14.692,99.354L-13.952,99.133L-13.189,98.908L-13.073,97.982L-12.555,97.498L-11.859,97.171L-11.57,96.474L-10.968,96.048L-10.362,95.612L-10.123,94.897L-9.465,94.497L-8.992,93.962L-9.015,93.065L-8.505,92.556L-8.16,91.922L-7.571,91.476L-7.432,90.955L-7.563,91.067L-7.943,91.708L-8.461,92.214L-9.172,92.514L-9.908,92.767L-10.221,93.494L-10.998,93.672L-11.227,94.548L-12.186,94.428L-12.582,95.108L-13.348,95.215L-13.857,95.748L-14.489,96.076L-15.076,96.496L-15.561,97.128L-16.185,97.49L-17.009,97.423L-17.553,97.953L-18.204,98.254L-19.001,98.231L-19.661,98.508L-20.149,99.195L-20.841,99.412L-21.607,99.445L-22.34,99.554L-22.762,100.414L-23.6,100.286L-24.271,100.55L-24.967,100.749L-25.543,101.24L-26.337,101.188L-26.931,101.628L-27.587,101.913L-28.203,102.314L-28.996,102.227L-29.515,102.934L-30.202,103.16L-30.895,103.367L-31.704,103.146L-32.352,103.481L-33.101,103.399L-33.718,103.922L-34.452,103.862L-35.153,103.959L-35.881,103.825L-36.544,104.247L-37.254,104.274L-37.969,104.234L-38.668,104.448L-39.37,104.707L-40.092,104.587L-40.808,104.632L-41.524,104.687L-42.254,104.205L-42.964,104.415L-43.664,104.916L-44.386,104.706L-45.104,104.776L-45.818,104.773L-46.539,104.861L-47.266,104.669L-47.993,104.878L-48.725,105.024L-49.472,104.524L-50.196,104.874L-50.925,104.996L-51.66,104.832L-52.389,104.916L-53.123,104.719L-53.853,104.93L-54.585,104.654L-55.317,104.886L-56.058,105.072L-56.79,104.985L-57.525,104.952L-58.274,105.014L-58.924,104.354L-59.655,104.334L-60.297,103.904L-61.165,104.401L-61.75,103.785L-62.419,103.502L-63.277,103.762L-63.984,103.548L-64.499,102.849L-65.134,102.481L-65.961,102.577L-66.431,101.828L-67.356,102.13L-67.99,101.75L-68.613,101.349L-69.174,100.807L-69.855,100.532L-70.44,100.088L-71.132,99.883L-71.887,99.821L-72.48,99.405L-73.093,99.034L-73.92,99.141L-74.382,98.444L-75.21,98.538L-75.605,97.709L-76.239,97.397L-76.862,97.063L-77.67,97.077L-78.129,96.446L-78.705,96.042L-79.301,95.678L-80.223,95.776L-80.628,95.12L-81.379,94.918L-81.559,94.039L-82.355,93.865L-82.855,93.36L-83.206,92.712L-83.987,92.464L-84.177,91.68L-84.649,91.155L-84.965,90.497L-85.503,90.03L-86.202,89.681L-86.657,89.132L-86.941,88.457L-87.546,88.021L-87.763,87.283L-88.399,86.841L-88.574,86.048L-88.93,85.398L-89.575,84.966L-90.145,84.479L-90.125,83.553L-90.545,82.957L-91.391,82.666L-91.675,81.97L-91.907,81.244L-92.312,80.636L-92.926,80.159L-93.381,79.577L-93.966,79.057L-93.979,78.238L-94.111,77.497L-94.558,76.9L-94.519,76.115L-94.792,75.45L-95.228,74.825L-95.566,74.16L-95.341,73.358L-95.655,72.681L-95.976,72.001L-95.817,71.231L-96.22,70.562L-96.585,69.881L-96.022,69.052L-96.237,68.346L-96.91,67.708L-96.583,66.917L-96.47,66.159L-96.616,65.452L-96.656,64.734L-97.014,64.049L-97.405,63.358L-97.232,62.619L-96.872,61.887L-96.843,61.177L-97.268,60.449L-96.908,59.754L-97.124,59.009L-97.073,58.283L-97.011,57.551L-96.955,56.807L-96.387,56.226L-95.902,55.642L-95.692,54.96L-95.541,54.249L-95.183,53.621L-95.006,52.914L-94.692,52.266L-94.497,51.571L-94.03,50.984L-94.302,50.106L-93.903,49.491L-93.151,49L-92.986,48.29L-92.726,47.613L-92.429,46.945L-92.755,46.068L-92.003,45.537L-92.133,44.726L-91.784,44.072L-91.689,43.33L-91.555,42.596L-91.445,41.846L-91.145,41.163L-90.739,40.533L-89.929,40.157L-89.824,39.37L-89.535,38.679L-88.666,38.411L-88.218,37.844L-88.247,36.897L-87.513,36.542L-87.173,35.871L-86.808,35.249L-86.524,34.579L-86.125,33.99L-85.418,33.575L-85.281,32.821L-84.464,32.458L-84.098,31.851L-83.804,31.208L-83.789,30.294L-83.064,29.976L-82.386,29.729L-81.853,29.026L-81.049,29.58L-80.367,29.532L-79.645,29.474L-78.902,29.484L-78.177,29.758L-77.885,30.492L-77.664,31.157L-77.781,31.865L-77.411,32.54L-77.73,33.234L-77.581,33.946L-77.551,34.657L-77.47,35.367L-77.972,36.077L-77.302,36.747L-77.67,37.529L-77.543,38.288L-76.808,38.707L-76.485,39.392L-75.676,39.447L-74.985,39.695L-74.402,40.155L-73.712,40.396L-73.008,40.587L-72.512,41.306L-71.768,41.391L-70.997,41.314L-70.36,41.764L-69.632,41.803L-68.905,41.618L-68.315,42.117L-68.796,42.176L-69.511,42.037L-70.215,42.167L-70.897,42.37L-71.699,42.035L-72.349,42.401L-72.905,42.928L-73.681,42.948L-74.281,43.352L-74.763,43.928L-75.712,43.803L-76.305,44.228L-76.896,44.653L-77.205,45.438L-77.872,45.76L-78.458,46.176L-79.199,46.421L-79.724,46.935L-80.111,47.587L-80.435,48.307L-81.268,48.418L-81.47,49.264L-82.088,49.629L-82.822,49.881L-83.452,50.258L-83.629,51.074L-84.043,51.641L-84.409,52.234L-85.038,52.636L-85.64,53.095L-85.984,53.728L-86.026,54.489L-86.318,55.126L-86.512,55.801L-87.124,56.365L-86.581,57.232L-86.89,57.878L-87.515,58.467L-87.358,59.218L-87.75,59.862L-88.053,60.524L-87.428,61.364L-88.064,61.962L-88.419,62.616L-88.132,63.398L-88.181,64.13L-88.47,64.818L-88.648,65.528L-88.583,66.282L-88.915,66.962L-89.245,67.652L-89.174,68.401L-89.168,69.135L-88.969,69.866L-89.198,70.591L-88.745,71.264L-89.101,72.054L-89.117,72.821L-88.857,73.514L-88.007,73.969L-88.071,74.775L-87.536,75.328L-87.706,76.21L-86.835,76.595L-86.979,77.483L-86.431,78.027L-85.819,78.536L-85.764,79.335L-85.552,80.053L-85.049,80.615L-84.889,81.37L-84.253,81.848L-83.759,82.402L-83.48,83.089L-83.08,83.7L-82.688,84.321L-82.161,84.831L-82.02,85.691L-81.084,85.812L-80.949,86.721L-80.43,87.249L-79.641,87.463L-79,87.836L-78.625,88.528L-78.15,89.097L-77.391,89.323L-76.724,89.657L-76.277,90.262L-75.472,90.447L-75.176,91.232L-74.563,91.648L-74.241,92.401L-73.739,92.907L-72.883,93.01L-72.413,93.556L-71.997,94.166L-71.241,94.382L-70.737,94.886L-70.334,95.52L-69.462,95.545L-68.92,95.985L-68.336,96.36L-67.975,97.138L-67.103,96.976L-66.486,97.285L-65.893,97.673L-65.194,97.795L-64.612,98.267L-63.863,98.248L-63.207,98.518L-62.635,99.071L-61.98,99.374L-61.282,99.534L-60.583,99.739L-59.861,99.857L-59.12,99.901L-58.35,99.816L-57.72,100.254L-56.993,100.326L-56.417,101.028L-55.704,101.184L-54.954,101.156L-54.232,101.252L-53.483,101.148L-52.8,101.479L-52.046,101.202L-51.369,101.876L-50.635,101.809L-49.908,101.26L-49.195,101.222L-48.467,101.614L-47.767,101.135L-47.013,101.759L-46.288,101.794L-45.608,101.105L-44.86,101.539L-44.155,101.271L-43.43,101.309L-42.726,100.958L-41.999,101.021L-41.282,100.831L-40.557,100.776L-39.822,101.198L-39.124,100.817L-38.393,101.368L-37.702,100.594L-36.974,101.081L-36.266,100.826L-35.55,100.948L-34.831,101.168L-34.135,100.697L-33.42,100.793L-32.726,100.55L-31.965,101.019L-31.254,100.902L-30.528,100.865L-29.827,100.685L-29.261,100.02L-28.425,100.351L-27.891,99.689L-27.253,99.376L-26.512,99.338L-25.922,98.902L-25.166,98.872L-24.431,98.783L-23.753,98.545L-23.367,97.641L-22.441,97.958L-21.976,97.228L-21.255,97.089L-20.758,96.437L-19.886,96.652L-19.273,96.264L-18.608,95.996L-17.966,95.674L-17.212,95.608L-16.769,94.843L-16.064,94.668L-15.459,94.285L-14.895,93.829L-14.158,93.703L-13.524,93.382L-12.917,93.018L-12.309,92.652L-11.666,92.334L-11.057,91.958L-10.289,91.787L-9.758,91.299L-9.467,90.52L-8.857,90.142L-8.55,89.405L-7.876,89.1L-7.261,88.718L-6.656,88.332L-6.046,87.934L-5.579,87.37L-5.236,86.66L-4.704,86.166L-3.981,85.884L-3.201,85.657L-3.096,84.699L-2.115,84.673L-1.999,83.748L-1.292,83.427L-0.924,83.084L-0.911,83.449L-1.544,83.905L-1.88,84.546L-2.051,85.348L-2.634,85.819L-3.192,86.287L-3.63,86.867L-4.001,87.508L-4.565,87.966L-5.293,88.268L-5.736,88.836L-5.836,89.161L-5.249,88.746L-4.456,88.527L-4.124,87.851L-3.423,87.555L-3.154,86.784L-2.583,86.345L-1.854,86.093L-1.463,85.438L-0.665,85.293L-0.511,84.351L0.306,84.231L0.852,83.772L1.208,83.071L2.107,83.052L2.391,82.257L2.996,81.868L3.427,81.258L4.26,81.152L4.602,80.431L5.243,80.083L5.72,79.533L6.333,79.161L6.999,78.846L7.493,78.328L7.833,77.639L8.327,77.13L9.219,77.038L9.479,76.283L9.763,75.578L10.316,75.135L10.731,74.573L11.299,74.114L11.948,73.647L11.899,72.848L11.771,72.174L12.08,71.357L11.577,70.733L10.835,70.504L10.304,69.901L9.597,69.696L8.806,69.891L8.147,69.506L7.759,69.559L8.017,68.942L8.208,68.258L8.541,67.641L8.985,67.065L9.24,66.41L9.42,65.731L10.011,65.195L9.741,64.36L10.396,63.846L10.082,62.985L10.485,62.381L10.736,61.722L10.91,61.031L11.788,60.615L11.626,59.768L12.074,59.161L12.506,58.546L12.33,57.708L12.994,57.172L12.717,56.317L12.971,55.643L13.285,54.98L13.441,54.277L13.985,53.629L13.695,52.861L13.549,52.124L13.906,51.434L13.755,50.696L13.963,49.989L13.739,49.246L14.069,48.543L14.051,47.811L13.829,47.066L14.319,46.383L14.147,45.646L14.155,44.923L14.391,44.221L14.425,43.5L14.301,42.768L14.918,42.092L14.919,41.367L14.9,40.644L14.525,39.91L14.948,39.198L14.971,38.469Z" style="fill:rgb(36,24,19);fill-rule:nonzero;"/>
    </g>
    <g transform="matrix(4.85179,6.75677,7.08617,-4.62626,21.7017,688.957)">
        <path d="M-0.138,-0.273L0.534,-0.273L0.425,-0.235L-0.149,-0.255L-0.138,-0.273Z" style="fill:rgb(36,24,19);fill-rule:nonzero;"/>
    </g>
    <g transform="matrix(8.588,0,0,8.18878,17.3691,686.302)">
        <path d="M0,-0.595L0.053,0.133L0.21,0.345L0.557,-0.432L0.057,-0.94L0,-0.595Z" style="fill:rgb(36,24,19);fill-rule:nonzero;"/>
    </g>
    <g transform="matrix(6.02182,5.83839,6.12302,-5.74189,15.6385,676.331)">
        <path d="M0.21,-0.011L0.38,-0.011L0.143,0.315L-0.06,0.586L0.21,-0.011Z" style="fill:rgb(36,24,19);fill-rule:nonzero;"/>
    </g>
    <g transform="matrix(8.588,0,0,8.18878,23.3438,693.834)">
        <path d="M0,0.44L-0.041,0.109L-0.115,0L0,0.44Z" style="fill:rgb(36,24,19);fill-rule:nonzero;"/>
    </g>
    <g transform="matrix(8.588,0,0,8.18878,18.8608,670.682)">
        <path d="M0,0.236L0.069,0.054L0.036,0L0,0.236Z" style="fill:rgb(36,24,19);fill-rule:nonzero;"/>
    </g>
    <g transform="matrix(8.588,0,0,8.18878,23.7148,700.229)">
        <path d="M0,0.064L0.005,0.051L-0.001,0L0,0.064Z" style="fill:rgb(36,24,19);fill-rule:nonzero;"/>
    </g>
    <g transform="matrix(8.588,0,0,8.18878,27.0692,734.336)">
        <path d="M0,0.623L0.264,0.217L0.158,0L0,0.623Z" style="fill:rgb(36,24,19);fill-rule:nonzero;"/>
    </g>
    <g transform="matrix(8.588,0,0,8.18878,22.7795,731.222)">
        <path d="M0,-0.794L0.417,-0.106L0.657,0.38L0.664,0.351L0.36,-0.332L0.234,-1.052L0.17,-1.174L0,-0.794Z" style="fill:rgb(36,24,19);fill-rule:nonzero;"/>
    </g>
    <g transform="matrix(8.588,0,0,8.18878,21.6897,715.477)">
        <path d="M0,0.19L0.297,0.749L0.472,0.358L0.335,-0.357L0.22,-0.559L0,0.19Z" style="fill:rgb(36,24,19);fill-rule:nonzero;"/>
    </g>
    <g transform="matrix(8.588,0,0,8.18878,21.2028,704.671)">
        <path d="M0,0.282L0.276,0.761L0.284,0.734L0.299,-0.003L0.293,-0.479L0,0.282Z" style="fill:rgb(36,24,19);fill-rule:nonzero;"/>
    </g>
    <g transform="matrix(8.588,0,0,8.18878,23.707,697.437)">
        <path d="M0,0.341L-0.003,0.15L-0.042,0L0,0.341Z" style="fill:rgb(36,24,19);fill-rule:nonzero;"/>
    </g>
</svg>
